<mxfile host="app.diagrams.net" modified="2024-03-25T10:36:47.742Z" agent="Mozilla/5.0 (X11; Ubuntu; Linux x86_64; rv:121.0) Gecko/20100101 Firefox/121.0" version="22.1.16" etag="mpbM9gBBbcNa-L5XUKln" type="github">
  <diagram name="Page-1" id="e6cHh2dv8o8fhtoeDSMc">
    <mxGraphModel>
      <root>
        <mxCell id="0" />
        <mxCell id="1" parent="0" />
      </root>
    </mxGraphModel>
  </diagram>
</mxfile>
